name Run_30002_IK.mot
datacolumns 164
datarows 4
range 2.13 2.16
endheader
time	         pelvis_tilt	         pelvis_list	     pelvis_rotation	           pelvis_tx	           pelvis_ty	           pelvis_tz	       hip_flexion_r	     hip_adduction_r	      hip_rotation_r	        knee_angle_r	       ankle_angle_r	       hip_flexion_l	     hip_adduction_l	      hip_rotation_l	        knee_angle_l	       ankle_angle_l	    lumbar_extension	      lumbar_bending	     lumbar_rotation	          arm_flex_r	           arm_add_r	           arm_rot_r	        elbow_flex_r	           pro_sup_r	          arm_flex_l	           arm_add_l	           arm_rot_l	        elbow_flex_l	           pro_sup_l	    subtalar_angle_r	         mtp_angle_r	    subtalar_angle_l	         mtp_angle_l	        wrist_flex_r	         wrist_dev_r	        wrist_flex_l	         wrist_dev_l	             LASI_tx	             LASI_ty	             LASI_tz	             RASI_tx	             RASI_ty	             RASI_tz	             LPSI_tx	             LPSI_ty	             LPSI_tz	             RPSI_tx	             RPSI_ty	             RPSI_tz	             RTH1_tx	             RTH1_ty	             RTH1_tz	             RTH2_tx	             RTH2_ty	             RTH2_tz	             RTH3_tx	             RTH3_ty	             RTH3_tz	             LTH1_tx	             LTH1_ty	             LTH1_tz	             LTH2_tx	             LTH2_ty	             LTH2_tz	             LTH3_tx	             LTH3_ty	             LTH3_tz	             RTB1_tx	             RTB1_ty	             RTB1_tz	             RTB2_tx	             RTB2_ty	             RTB2_tz	             RTB3_tx	             RTB3_ty	             RTB3_tz	             LTB1_tx	             LTB1_ty	             LTB1_tz	             LTB2_tx	             LTB2_ty	             LTB2_tz	             LTB3_tx	             LTB3_ty	             LTB3_tz	             RCAL_tx	             RCAL_ty	             RCAL_tz	             RTOE_tx	             RTOE_ty	             RTOE_tz	             RMT5_tx	             RMT5_ty	             RMT5_tz	             LCAL_tx	             LCAL_ty	             LCAL_tz	             LTOE_tx	             LTOE_ty	             LTOE_tz	             LMT5_tx	             LMT5_ty	             LMT5_tz	             LACR_tx	             LACR_ty	             LACR_tz	             RACR_tx	             RACR_ty	             RACR_tz	             CLAV_tx	             CLAV_ty	             CLAV_tz	               C7_tx	               C7_ty	               C7_tz	             RUA1_tx	             RUA1_ty	             RUA1_tz	             RUA2_tx	             RUA2_ty	             RUA2_tz	             RUA3_tx	             RUA3_ty	             RUA3_tz	             RLEL_tx	             RLEL_ty	             RLEL_tz	             RMEL_tx	             RMEL_ty	             RMEL_tz	             LUA1_tx	             LUA1_ty	             LUA1_tz	             LUA2_tx	             LUA2_ty	             LUA2_tz	             LUA3_tx	             LUA3_ty	             LUA3_tz	             LLEL_tx	             LLEL_ty	             LLEL_tz	             LMEL_tx	             LMEL_ty	             LMEL_tz	      RFAsuperior_tx	      RFAsuperior_ty	      RFAsuperior_tz	        RFAradius_tx	        RFAradius_ty	        RFAradius_tz	          RFAulna_tx	          RFAulna_ty	          RFAulna_tz	      LFAsuperior_tx	      LFAsuperior_ty	      LFAsuperior_tz	        LFAradius_tx	        LFAradius_ty	        LFAradius_tz	          LFAulna_tx	          LFAulna_ty	          LFAulna_tz	
2.13	        -12.01786267	         -0.26010166	         -2.92130479	          0.94735897	          0.99069485	         -0.34458822	         13.81484343	          6.78763210	          2.97788734	        -30.82774356	         21.36088445	         46.74134840	         -1.21740675	         -0.60974600	        -87.99850962	          5.78312661	         -2.78988764	          2.21554242	         11.86003829	        -15.93453110	        -24.03297306	         -9.38829401	        107.19207061	        105.86072295	        -37.25926634	        -16.15304158	         -3.41048573	        104.13259822	        101.54097266	          0.00000000	          0.00000000	          0.00000000	          0.00000000	          0.00000000	          0.00000000	          0.00000000	          0.00000000	          0.95809920	          1.03287231	         -0.45395416	          0.96532984	          1.02992766	         -0.22355860	          0.80986326	          1.09051813	         -0.41200587	          0.80521634	          1.08580363	         -0.29928846	          0.87820157	          0.90865907	         -0.17918016	          0.82366780	          0.76408688	         -0.21023352	          0.86456826	          0.60907429	         -0.22921375	          0.93849690	          0.90783043	         -0.53087094	          0.94304430	          0.75017765	         -0.50015542	          1.05776158	          0.65829683	         -0.49827519	          0.85732141	          0.35628532	         -0.31884772	          0.76975652	          0.33955575	         -0.24833338	          0.74434385	          0.20220107	         -0.33882541	          1.07540510	          0.45954824	         -0.43821884	          0.93779445	          0.45721447	         -0.49474430	          0.89064809	          0.34398421	         -0.44264965	          0.57129945	          0.11989284	         -0.33913910	          0.80741803	          0.07069974	         -0.37304646	          0.75795237	          0.05080345	         -0.27572271	          0.70287544	          0.35157214	         -0.42088265	          0.85372458	          0.16738895	         -0.42214498	          0.79134838	          0.17781673	         -0.51521116	          0.94556812	          1.52017317	         -0.49725122	          0.99955949	          1.48998218	         -0.17887281	          1.03896422	          1.46159635	         -0.31428424	          0.91062044	          1.53500867	         -0.33347512	          0.91093484	          1.38881017	         -0.09719308	          0.95873443	          1.33054342	         -0.08091327	          0.90530895	          1.25203627	         -0.02722387	          0.88484081	          1.19174168	          0.00564844	          0.87106383	          1.16308794	         -0.07933755	          0.82438267	          1.45002221	         -0.53673263	          0.83085354	          1.37494203	         -0.57733205	          0.74177914	          1.33540978	         -0.59411239	          0.70469382	          1.27937637	         -0.61694240	          0.69177439	          1.25766539	         -0.53036814	          0.98369096	          1.14685024	         -0.01838978	          1.11454824	          1.13069564	         -0.14227409	          1.10865152	          1.07793441	         -0.09780199	          0.74728350	          1.20320580	         -0.62051735	          0.90794098	          1.12853492	         -0.54863889	          0.87075661	          1.07726413	         -0.58300432	
2.14	        -11.91379850	          0.31655714	         -2.60941996	          0.94893691	          0.99816805	         -0.34419351	         10.19121505	          5.94319411	          3.03100030	        -27.46473886	         18.45360792	         47.32283771	         -0.61698537	         -0.90904881	        -84.13259746	          6.01242031	         -2.59012853	          1.29735413	         12.40078978	        -15.31800722	        -23.65300197	         -9.01708109	        109.54591939	        107.02452211	        -38.68620927	        -16.34488450	         -4.06584696	        106.16197178	        101.68000655	          0.00000000	          0.00000000	          0.00000000	          0.00000000	          0.00000000	          0.00000000	          0.00000000	          0.00000000	          0.95830903	          1.04079192	         -0.45183379	          0.96732019	          1.03633677	         -0.22284466	          0.81082290	          1.09808611	         -0.41066912	          0.80706294	          1.09233233	         -0.29800026	          0.87769295	          0.91365562	         -0.17985217	          0.81523046	          0.77209056	         -0.20974742	          0.84709219	          0.61582783	         -0.23000989	          0.94048826	          0.91765709	         -0.53125544	          0.94638640	          0.75896879	         -0.49951394	          1.06280407	          0.66968755	         -0.49731546	          0.83144047	          0.36270202	         -0.31810733	          0.74395512	          0.34695944	         -0.24843687	          0.71848694	          0.20924138	         -0.33859824	          1.08942745	          0.46827787	         -0.43834214	          0.95202190	          0.45543267	         -0.49332541	          0.91403944	          0.33837957	         -0.44136219	          0.54569721	          0.13004100	         -0.33830722	          0.77800052	          0.07029028	         -0.37394931	          0.72797291	          0.05138480	         -0.27656080	          0.72645012	          0.33063847	         -0.41930667	          0.89222006	          0.15995710	         -0.42111879	          0.82851793	          0.16439503	         -0.51324931	          0.94270892	          1.52810653	         -0.49720159	          1.00118047	          1.49832138	         -0.18023502	          1.03899968	          1.46967676	         -0.31626151	          0.91019259	          1.54188794	         -0.33311455	          0.91468258	          1.39627496	         -0.09762431	          0.96400062	          1.33830983	         -0.08251448	          0.91350082	          1.25873276	         -0.02832903	          0.89400523	          1.19777251	          0.00432279	          0.87848634	          1.17018062	         -0.08100840	          0.82016917	          1.46053907	         -0.53424616	          0.82482427	          1.38536755	         -0.57550757	          0.73521582	          1.34677647	         -0.59120444	          0.69652906	          1.29155808	         -0.61246996	          0.68523402	          1.27005706	         -0.52575398	          0.99352463	          1.15797297	         -0.02340406	          1.12062969	          1.15016665	         -0.15175185	          1.11954516	          1.09684976	         -0.10757256	          0.73979786	          1.21654273	         -0.61673647	          0.90231812	          1.14429322	         -0.54801499	          0.86570775	          1.09224800	         -0.58180025	
2.15	        -11.75333604	          0.94987235	         -2.20174599	          0.95080520	          1.00609727	         -0.34357284	          6.69590809	          5.02412890	          2.76604954	        -24.31036751	         14.76492343	         47.52797810	         -0.00480301	         -1.37854870	        -79.79164123	          6.20687315	         -2.45700568	          0.27828222	         12.69337299	        -14.74731349	        -23.22228222	         -8.50654235	        111.86767795	        108.25011027	        -40.14309023	        -16.47060967	         -4.89092019	        108.14693575	        101.86617038	          0.00000000	          0.00000000	          0.00000000	          0.00000000	          0.00000000	          0.00000000	          0.00000000	          0.00000000	          0.95842057	          1.04930245	         -0.44892982	          0.96987472	          1.04335304	         -0.22184722	          0.81177251	          1.10615248	         -0.40895551	          0.80945776	          1.09945814	         -0.29648325	          0.87823205	          0.91912172	         -0.18055915	          0.80779652	          0.78088403	         -0.20930775	          0.83074988	          0.62408086	         -0.23023060	          0.94229589	          0.92763518	         -0.53147434	          0.94866877	          0.76804026	         -0.49850435	          1.06630898	          0.68078227	         -0.49614932	          0.80740680	          0.37060275	         -0.31738483	          0.71957661	          0.35612094	         -0.24815804	          0.69401557	          0.21761707	         -0.33781717	          1.10193396	          0.47686739	         -0.43885782	          0.96517758	          0.45334479	         -0.49136250	          0.93764222	          0.33281576	         -0.43972375	          0.52226203	          0.14286878	         -0.33733431	          0.74890287	          0.06972360	         -0.37403570	          0.69856157	          0.05246053	         -0.27698691	          0.75170239	          0.30907301	         -0.41593119	          0.93138305	          0.15338969	         -0.42038264	          0.86619486	          0.15218045	         -0.51121279	          0.94038833	          1.53627725	         -0.49723678	          1.00269850	          1.50698563	         -0.18158468	          1.03915685	          1.47821145	         -0.31826515	          0.91000207	          1.54910307	         -0.33280625	          0.91799877	          1.40416895	         -0.09805464	          0.96876852	          1.34657077	         -0.08399322	          0.92087955	          1.26620440	         -0.02926441	          0.90230802	          1.20460318	          0.00308340	          0.88482835	          1.17796187	         -0.08238626	          0.81673886	          1.47124613	         -0.53190292	          0.81966297	          1.39593840	         -0.57359123	          0.72934162	          1.35849907	         -0.58799198	          0.68910958	          1.30394527	         -0.60780070	          0.67953772	          1.28273122	         -0.52084016	          1.00198588	          1.16944343	         -0.02822092	          1.12500829	          1.16992222	         -0.16070323	          1.12848355	          1.11640011	         -0.11688285	          0.73278100	          1.22966662	         -0.61283258	          0.89739065	          1.16003996	         -0.54715961	          0.86126954	          1.10733712	         -0.58052742	
2.16	        -11.60461683	          1.60648486	         -1.72073251	          0.95274002	          1.01414749	         -0.34283886	          3.51090721	          4.08239044	          2.05433157	        -21.53297360	         10.43246697	         47.44473458	          0.64066299	         -1.96871630	        -75.01755616	          6.42874675	         -2.35654066	         -0.78591729	         12.80214684	        -14.26992789	        -22.78005055	         -7.90402690	        114.17539477	        109.35115039	        -41.56660085	        -16.52827493	         -5.77896420	        110.02120363	        101.95281919	          0.00000000	          0.00000000	          0.00000000	          0.00000000	          0.00000000	          0.00000000	          0.00000000	          0.00000000	          0.95846908	          1.05802678	         -0.44576158	          0.97279764	          1.05075008	         -0.22063890	          0.81263540	          1.11450326	         -0.40708611	          0.81222748	          1.10691000	         -0.29479960	          0.87906545	          0.92504033	         -0.18119498	          0.80124882	          0.79021144	         -0.20887677	          0.81595467	          0.63339033	         -0.22985061	          0.94346911	          0.93733381	         -0.53159210	          0.95004290	          0.77728023	         -0.49701098	          1.06815606	          0.69119476	         -0.49467240	          0.78556967	          0.37948912	         -0.31615111	          0.69687939	          0.36652338	         -0.24748633	          0.67171081	          0.22692348	         -0.33676231	          1.11273417	          0.48501830	         -0.43899348	          0.97736680	          0.45065454	         -0.48898835	          0.96126805	          0.32740534	         -0.43770440	          0.50124838	          0.15768911	         -0.33640381	          0.72021080	          0.06901569	         -0.37353742	          0.66983396	          0.05408992	         -0.27695026	          0.77848918	          0.28726972	         -0.41099385	          0.97107183	          0.14809405	         -0.41981326	          0.90424605	          0.14132911	         -0.50906787	          0.93863016	          1.54438129	         -0.49715070	          1.00424749	          1.51556983	         -0.18307624	          1.03937437	          1.48671735	         -0.32023225	          0.91000662	          1.55639023	         -0.33261667	          0.92131602	          1.41239102	         -0.09833881	          0.97314019	          1.35507369	         -0.08535555	          0.92730595	          1.27418014	         -0.02997370	          0.90968943	          1.21198847	          0.00194327	          0.89013826	          1.18610080	         -0.08335683	          0.81407667	          1.48169430	         -0.52980025	          0.81538106	          1.40629027	         -0.57161864	          0.72409326	          1.37038416	         -0.58434778	          0.68253470	          1.31626223	         -0.60304016	          0.67468737	          1.29520353	         -0.51581060	          1.00921591	          1.18116437	         -0.03285430	          1.12786394	          1.18953805	         -0.16892437	          1.13552466	          1.13597861	         -0.12565707	          0.72647758	          1.24250021	         -0.60883055	          0.89308986	          1.17529344	         -0.54611202	          0.85729707	          1.12197969	         -0.57897177	
